<svg width="61" height="29" viewBox="0 0 61 29" fill="none" xmlns="http://www.w3.org/2000/svg">
<path d="M15.4556 28.9998H11.068C10.5936 28.9999 10.1211 28.9365 9.66217 28.811C9.66085 28.8114 9.65957 28.8119 9.6582 28.8122C9.65269 28.8101 9.64731 28.8077 9.6418 28.8056C9.63629 28.8036 9.62999 28.8026 9.62417 28.801C9.62536 28.8007 9.62646 28.8003 9.62761 28.7999C8.61297 28.3966 7.70016 27.5257 7.02164 26.5214C6.62552 25.935 6.26109 24.8394 6.13669 24.5618C5.99959 24.2556 5.88776 24.0608 5.67704 23.6706C5.36167 23.087 4.9515 22.5649 4.46478 22.1275H1.00106C1.00106 22.1206 1 22.1059 1 22.099C1.00005 21.81 1.09269 21.5294 1.26321 21.3016C1.43374 21.0738 1.67239 20.9118 1.94129 20.8415C1.94459 20.8406 1.94784 20.8396 1.95103 20.8384C2.59573 20.6722 2.71101 20.6997 3.12239 20.6999H10.7549C11.0166 20.7 11.278 20.7193 11.537 20.7576C12.4873 20.8979 13.3858 21.2946 14.1434 21.9085L14.8476 19.0285L15.0072 18.3759L17.2687 9.20451C17.5457 8.23504 18.0624 7.35846 18.7668 6.66256C19.4713 5.96667 20.3389 5.47588 21.2826 5.23938L21.2755 5.23782C21.6698 5.14667 22.0725 5.10067 22.4763 5.10064H30.1089C30.3707 5.10069 30.632 5.11995 30.8911 5.1583C32.9754 5.46577 34.787 6.95097 35.3465 9.00798C35.4217 9.28439 35.4335 9.40939 35.5658 9.92184L36.5219 13.9069C36.5516 14.003 36.732 14.6759 36.7458 14.7249L35.5269 19.7813L37.817 10.2811L39.169 4.69799C39.3861 3.52038 39.9509 2.44289 40.7843 1.61606C41.6177 0.789217 42.6782 0.254334 43.8175 0.0861355L44.5845 0.00652325L46.1076 0L46.5734 0.00119446L46.5741 0.00156177L53.9579 0.00652325C56.2815 0.00652325 58.2638 1.51401 59.0826 3.61856H59.9995C59.9995 3.6249 60 3.6312 60 3.63758C60 3.97385 59.8718 4.29635 59.6436 4.53413C59.4155 4.77191 59.106 4.9055 58.7833 4.9055C58.7258 4.90543 58.6684 4.90116 58.6114 4.89272L50.8442 4.88606L50.7633 4.88349L50.512 4.86902C50.5126 4.86902 50.513 4.86874 50.5137 4.86865L50.3629 4.85997C49.652 4.80108 49.4901 4.33861 49.2605 3.67815L48.5707 6.52636L47.5711 10.6543L45.3494 19.776L45.3411 19.8169C45.1048 21.1407 44.4311 22.3364 43.4368 23.1964C42.4426 24.0564 41.1907 24.5263 39.8986 24.5245H33.5381C32.3456 24.5248 31.1848 24.1234 30.229 23.3801C29.2732 22.6368 28.5736 21.5915 28.2344 20.4C28.1893 20.2413 28.1505 20.0798 28.1182 19.9157L27.1087 15.707L26.807 14.4494L26.4483 12.9541L26.4435 12.9342L26.4243 12.8541L26.3141 12.3954L25.8308 14.3719L25.4973 15.7359C25.4973 15.7359 23.3044 24.8486 23.1853 25.1929C22.7988 26.308 22.0918 27.2719 21.1606 27.9532C20.2294 28.6344 19.1193 29 17.9816 29L15.4556 28.9998Z" fill="#61DCAB"/>
</svg>
